<svg width="28" height="96" viewBox="0 0 28 96" fill="none" xmlns="http://www.w3.org/2000/svg">
<path d="M13.875 34.0312C21.5448 34.0312 27.75 40.2574 27.75 47.9531C27.75 55.6488 21.5448 61.875 13.875 61.875C6.20521 61.875 0 55.6488 0 47.9531C0 40.2574 6.20521 34.0312 13.875 34.0312ZM0 13.9219C0 21.6176 6.20521 27.8438 13.875 27.8438C21.5448 27.8438 27.75 21.6176 27.75 13.9219C27.75 6.22617 21.5448 0 13.875 0C6.20521 0 0 6.22617 0 13.9219ZM0 81.9844C0 89.6801 6.20521 95.9062 13.875 95.9062C21.5448 95.9062 27.75 89.6801 27.75 81.9844C27.75 74.2887 21.5448 68.0625 13.875 68.0625C6.20521 68.0625 0 74.2887 0 81.9844Z" fill="white"/>
</svg>
